<?xml version="1.0" encoding="UTF-8" standalone="no"?>
<!DOCTYPE svg PUBLIC "-//W3C//DTD SVG 1.1//EN"
 "http://www.w3.org/Graphics/SVG/1.1/DTD/svg11.dtd">
<!-- Generated by graphviz version 2.43.0 (0)
 -->
<!-- Title: protodot Pages: 1 -->
<svg width="655pt" height="577pt"
 viewBox="0.00 0.00 655.00 576.50" xmlns="http://www.w3.org/2000/svg" xmlns:xlink="http://www.w3.org/1999/xlink">
<g id="graph0" class="graph" transform="scale(1 1) rotate(0) translate(4 572.5)">
<title>protodot</title>
<g id="a_graph0"><a xlink:title="DTCC">
<text text-anchor="middle" x="323.5" y="-7.8" font-family="Times,serif" font-size="14.00">DTCC</text>
</a>
</g>
<!-- Node_Ja_108 -->
<g id="node1" class="node">
<title>Node_Ja_108</title>
<g id="a_node1"><a xlink:title="DTCC.Grid3D">
<polygon fill="#fffaf0" stroke="transparent" points="181,-101 181,-223 347,-223 347,-101 181,-101"/>
<polygon fill="#e31a1c" stroke="transparent" points="182,-207 182,-222 346,-222 346,-207 182,-207"/>
<text text-anchor="start" x="310" y="-213" font-family="Ubuntu" font-weight="bold" font-size="10.00">Grid3D</text>
<text text-anchor="start" x="188" y="-197" font-family="Ubuntu" font-size="10.00">1</text>
<text text-anchor="start" x="199" y="-197" font-family="Ubuntu" font-size="10.00">boundingBox</text>
<polygon fill="#fb9a99" stroke="transparent" points="264,-192 264,-207 346,-207 346,-192 264,-192"/>
<text text-anchor="start" x="266" y="-198" font-family="Ubuntu" font-weight="bold" font-size="10.00">BoundingBox3D</text>
<text text-anchor="start" x="188" y="-182" font-family="Ubuntu" font-size="10.00">2</text>
<text text-anchor="start" x="199" y="-182" font-family="Ubuntu" font-size="10.00">xSize</text>
<polygon fill="#a6cee3" stroke="transparent" points="264,-177 264,-192 346,-192 346,-177 264,-177"/>
<text text-anchor="start" x="320" y="-183" font-family="Ubuntu" font-style="italic" font-size="10.00">int32</text>
<text text-anchor="start" x="188" y="-167" font-family="Ubuntu" font-size="10.00">3</text>
<text text-anchor="start" x="199" y="-167" font-family="Ubuntu" font-size="10.00">ySize</text>
<polygon fill="#a6cee3" stroke="transparent" points="264,-162 264,-177 346,-177 346,-162 264,-162"/>
<text text-anchor="start" x="320" y="-168" font-family="Ubuntu" font-style="italic" font-size="10.00">int32</text>
<text text-anchor="start" x="188" y="-152" font-family="Ubuntu" font-size="10.00">4</text>
<text text-anchor="start" x="199" y="-152" font-family="Ubuntu" font-size="10.00">zSize</text>
<polygon fill="#a6cee3" stroke="transparent" points="264,-147 264,-162 346,-162 346,-147 264,-147"/>
<text text-anchor="start" x="320" y="-153" font-family="Ubuntu" font-style="italic" font-size="10.00">int32</text>
<text text-anchor="start" x="188" y="-137" font-family="Ubuntu" font-size="10.00">5</text>
<text text-anchor="start" x="199" y="-137" font-family="Ubuntu" font-size="10.00">xStep</text>
<polygon fill="#a6cee3" stroke="transparent" points="264,-132 264,-147 346,-147 346,-132 264,-132"/>
<text text-anchor="start" x="322" y="-138" font-family="Ubuntu" font-style="italic" font-size="10.00">float</text>
<text text-anchor="start" x="188" y="-122" font-family="Ubuntu" font-size="10.00">6</text>
<text text-anchor="start" x="199" y="-122" font-family="Ubuntu" font-size="10.00">yStep</text>
<polygon fill="#a6cee3" stroke="transparent" points="264,-117 264,-132 346,-132 346,-117 264,-117"/>
<text text-anchor="start" x="322" y="-123" font-family="Ubuntu" font-style="italic" font-size="10.00">float</text>
<text text-anchor="start" x="188" y="-107" font-family="Ubuntu" font-size="10.00">7</text>
<text text-anchor="start" x="199" y="-107" font-family="Ubuntu" font-size="10.00">zStep</text>
<polygon fill="#a6cee3" stroke="transparent" points="264,-102 264,-117 346,-117 346,-102 264,-102"/>
<text text-anchor="start" x="322" y="-108" font-family="Ubuntu" font-style="italic" font-size="10.00">float</text>
<polygon fill="none" stroke="black" points="181,-101 181,-223 347,-223 347,-101 181,-101"/>
</a>
</g>
</g>
<!-- Node_Ja_105 -->
<g id="node14" class="node">
<title>Node_Ja_105</title>
<g id="a_node14"><a xlink:title="DTCC.BoundingBox3D">
<polygon fill="#fffaf0" stroke="transparent" points="420.5,-161.5 420.5,-208.5 504.5,-208.5 504.5,-161.5 420.5,-161.5"/>
<polygon fill="#e31a1c" stroke="transparent" points="421.5,-192 421.5,-207 503.5,-207 503.5,-192 421.5,-192"/>
<text text-anchor="start" x="423.5" y="-198" font-family="Ubuntu" font-weight="bold" font-size="10.00">BoundingBox3D</text>
<text text-anchor="start" x="430.5" y="-182" font-family="Ubuntu" font-size="10.00">1</text>
<text text-anchor="start" x="441.5" y="-182" font-family="Ubuntu" font-size="10.00">p</text>
<polygon fill="#fb9a99" stroke="transparent" points="451.5,-177 451.5,-192 503.5,-192 503.5,-177 451.5,-177"/>
<text text-anchor="start" x="454.5" y="-183" font-family="Ubuntu" font-weight="bold" font-size="10.00">Vector3D</text>
<text text-anchor="start" x="430.5" y="-167" font-family="Ubuntu" font-size="10.00">2</text>
<text text-anchor="start" x="441.5" y="-167" font-family="Ubuntu" font-size="10.00">q</text>
<polygon fill="#fb9a99" stroke="transparent" points="451.5,-162 451.5,-177 503.5,-177 503.5,-162 451.5,-162"/>
<text text-anchor="start" x="454.5" y="-168" font-family="Ubuntu" font-weight="bold" font-size="10.00">Vector3D</text>
<polygon fill="none" stroke="black" points="420.5,-161.5 420.5,-208.5 504.5,-208.5 504.5,-161.5 420.5,-161.5"/>
</a>
</g>
</g>
<!-- Node_Ja_108&#45;&gt;Node_Ja_105 -->
<g id="edge5" class="edge">
<title>Node_Ja_108:e&#45;&gt;Node_Ja_105:header</title>
<g id="a_edge5"><a xlink:title="Ja_108 &#45;&#45;&gt; Ja_105">
<path fill="none" stroke="#000000" d="M347,-200C375.97,-200 385.67,-200 410.27,-200"/>
<polygon fill="#000000" stroke="#000000" points="410.5,-203.5 420.5,-200 410.5,-196.5 410.5,-203.5"/>
</a>
</g>
</g>
<!-- Node_Ja_109 -->
<g id="node2" class="node">
<title>Node_Ja_109</title>
<g id="a_node2"><a xlink:title="DTCC.Surface3D">
<polygon fill="#fffaf0" stroke="transparent" points="399,-73 399,-135 526,-135 526,-73 399,-73"/>
<polygon fill="#e31a1c" stroke="transparent" points="400.5,-119 400.5,-134 525.5,-134 525.5,-119 400.5,-119"/>
<text text-anchor="start" x="472.5" y="-125" font-family="Ubuntu" font-weight="bold" font-size="10.00">Surface3D</text>
<text text-anchor="start" x="402.5" y="-109" font-family="Ubuntu" font-size="10.00">[...]</text>
<text text-anchor="start" x="419.5" y="-109" font-family="Ubuntu" font-size="10.00">1</text>
<text text-anchor="start" x="430.5" y="-109" font-family="Ubuntu" font-size="10.00">vertices</text>
<polygon fill="#fb9a99" stroke="transparent" points="469.5,-104 469.5,-119 525.5,-119 525.5,-104 469.5,-104"/>
<text text-anchor="start" x="476.5" y="-110" font-family="Ubuntu" font-weight="bold" font-size="10.00">Vector3D</text>
<text text-anchor="start" x="402.5" y="-94" font-family="Ubuntu" font-size="10.00">[...]</text>
<text text-anchor="start" x="419.5" y="-94" font-family="Ubuntu" font-size="10.00">2</text>
<text text-anchor="start" x="430.5" y="-94" font-family="Ubuntu" font-size="10.00">normals</text>
<polygon fill="#fb9a99" stroke="transparent" points="469.5,-89 469.5,-104 525.5,-104 525.5,-89 469.5,-89"/>
<text text-anchor="start" x="476.5" y="-95" font-family="Ubuntu" font-weight="bold" font-size="10.00">Vector3D</text>
<text text-anchor="start" x="402.5" y="-79" font-family="Ubuntu" font-size="10.00">[...]</text>
<text text-anchor="start" x="419.5" y="-79" font-family="Ubuntu" font-size="10.00">3</text>
<text text-anchor="start" x="430.5" y="-79" font-family="Ubuntu" font-size="10.00">faces</text>
<polygon fill="#fb9a99" stroke="transparent" points="469.5,-74 469.5,-89 525.5,-89 525.5,-74 469.5,-74"/>
<text text-anchor="start" x="471.5" y="-80" font-family="Ubuntu" font-weight="bold" font-size="10.00">Simplex2D</text>
<polygon fill="none" stroke="black" points="399,-73 399,-135 526,-135 526,-73 399,-73"/>
</a>
</g>
</g>
<!-- Node_Ja_101 -->
<g id="node10" class="node">
<title>Node_Ja_101</title>
<g id="a_node10"><a xlink:title="DTCC.Vector3D">
<polygon fill="#fffaf0" stroke="transparent" points="582,-115 582,-177 635,-177 635,-115 582,-115"/>
<polygon fill="#e31a1c" stroke="transparent" points="583.5,-161 583.5,-176 634.5,-176 634.5,-161 583.5,-161"/>
<text text-anchor="start" x="585.5" y="-167" font-family="Ubuntu" font-weight="bold" font-size="10.00">Vector3D</text>
<text text-anchor="start" x="589.5" y="-151" font-family="Ubuntu" font-size="10.00">1</text>
<text text-anchor="start" x="600.5" y="-151" font-family="Ubuntu" font-size="10.00">x</text>
<polygon fill="#a6cee3" stroke="transparent" points="608.5,-146 608.5,-161 634.5,-161 634.5,-146 608.5,-146"/>
<text text-anchor="start" x="610.5" y="-152" font-family="Ubuntu" font-style="italic" font-size="10.00">float</text>
<text text-anchor="start" x="589.5" y="-136" font-family="Ubuntu" font-size="10.00">2</text>
<text text-anchor="start" x="600.5" y="-136" font-family="Ubuntu" font-size="10.00">y</text>
<polygon fill="#a6cee3" stroke="transparent" points="608.5,-131 608.5,-146 634.5,-146 634.5,-131 608.5,-131"/>
<text text-anchor="start" x="610.5" y="-137" font-family="Ubuntu" font-style="italic" font-size="10.00">float</text>
<text text-anchor="start" x="589.5" y="-121" font-family="Ubuntu" font-size="10.00">3</text>
<text text-anchor="start" x="600.5" y="-121" font-family="Ubuntu" font-size="10.00">z</text>
<polygon fill="#a6cee3" stroke="transparent" points="608.5,-116 608.5,-131 634.5,-131 634.5,-116 608.5,-116"/>
<text text-anchor="start" x="610.5" y="-122" font-family="Ubuntu" font-style="italic" font-size="10.00">float</text>
<polygon fill="none" stroke="black" points="582,-115 582,-177 635,-177 635,-115 582,-115"/>
</a>
</g>
</g>
<!-- Node_Ja_109&#45;&gt;Node_Ja_101 -->
<g id="edge8" class="edge">
<title>Node_Ja_109:e&#45;&gt;Node_Ja_101:header</title>
<g id="a_edge8"><a xlink:title="Ja_109 &#45;&#45;&gt; Ja_101">
<path fill="none" stroke="#000000" d="M526.5,-96C563.56,-96 545.86,-155.95 572.65,-167.2"/>
<polygon fill="#000000" stroke="#000000" points="572.03,-170.64 582.5,-169 573.29,-163.76 572.03,-170.64"/>
</a>
</g>
</g>
<!-- Node_Ja_109&#45;&gt;Node_Ja_101 -->
<g id="edge14" class="edge">
<title>Node_Ja_109:e&#45;&gt;Node_Ja_101:header</title>
<g id="a_edge14"><a xlink:title="Ja_109 &#45;&#45;&gt; Ja_101">
<path fill="none" stroke="#000000" d="M526.5,-112C558.13,-112 549.67,-157.21 572.53,-167.1"/>
<polygon fill="#000000" stroke="#000000" points="572.02,-170.57 582.5,-169 573.33,-163.69 572.02,-170.57"/>
</a>
</g>
</g>
<!-- Node_Ja_102 -->
<g id="node12" class="node">
<title>Node_Ja_102</title>
<g id="a_node12"><a xlink:title="DTCC.Simplex2D">
<polygon fill="#fffaf0" stroke="transparent" points="578,-27 578,-89 639,-89 639,-27 578,-27"/>
<polygon fill="#e31a1c" stroke="transparent" points="579.5,-73 579.5,-88 638.5,-88 638.5,-73 579.5,-73"/>
<text text-anchor="start" x="584.5" y="-79" font-family="Ubuntu" font-weight="bold" font-size="10.00">Simplex2D</text>
<text text-anchor="start" x="585.5" y="-63" font-family="Ubuntu" font-size="10.00">1</text>
<text text-anchor="start" x="596.5" y="-63" font-family="Ubuntu" font-size="10.00">v0</text>
<polygon fill="#a6cee3" stroke="transparent" points="610.5,-58 610.5,-73 638.5,-73 638.5,-58 610.5,-58"/>
<text text-anchor="start" x="612.5" y="-64" font-family="Ubuntu" font-style="italic" font-size="10.00">int32</text>
<text text-anchor="start" x="585.5" y="-48" font-family="Ubuntu" font-size="10.00">2</text>
<text text-anchor="start" x="596.5" y="-48" font-family="Ubuntu" font-size="10.00">v1</text>
<polygon fill="#a6cee3" stroke="transparent" points="610.5,-43 610.5,-58 638.5,-58 638.5,-43 610.5,-43"/>
<text text-anchor="start" x="612.5" y="-49" font-family="Ubuntu" font-style="italic" font-size="10.00">int32</text>
<text text-anchor="start" x="585.5" y="-33" font-family="Ubuntu" font-size="10.00">3</text>
<text text-anchor="start" x="596.5" y="-33" font-family="Ubuntu" font-size="10.00">v2</text>
<polygon fill="#a6cee3" stroke="transparent" points="610.5,-28 610.5,-43 638.5,-43 638.5,-28 610.5,-28"/>
<text text-anchor="start" x="612.5" y="-34" font-family="Ubuntu" font-style="italic" font-size="10.00">int32</text>
<polygon fill="none" stroke="black" points="578,-27 578,-89 639,-89 639,-27 578,-27"/>
</a>
</g>
</g>
<!-- Node_Ja_109&#45;&gt;Node_Ja_102 -->
<g id="edge7" class="edge">
<title>Node_Ja_109:e&#45;&gt;Node_Ja_102:header</title>
<g id="a_edge7"><a xlink:title="Ja_109 &#45;&#45;&gt; Ja_102">
<path fill="none" stroke="#000000" d="M526.5,-81C545.82,-81 553.03,-81 568.37,-81"/>
<polygon fill="#000000" stroke="#000000" points="568.5,-84.5 578.5,-81 568.5,-77.5 568.5,-84.5"/>
</a>
</g>
</g>
<!-- Node_Ja_112 -->
<g id="node3" class="node">
<title>Node_Ja_112</title>
<g id="a_node3"><a xlink:title="DTCC.Building">
<polygon fill="#fffaf0" stroke="transparent" points="200,-249.5 200,-326.5 328,-326.5 328,-249.5 200,-249.5"/>
<polygon fill="#e31a1c" stroke="transparent" points="201,-310 201,-325 327,-325 327,-310 201,-310"/>
<text text-anchor="start" x="285" y="-316" font-family="Ubuntu" font-weight="bold" font-size="10.00">Building</text>
<text text-anchor="start" x="207" y="-300" font-family="Ubuntu" font-size="10.00">1</text>
<text text-anchor="start" x="218" y="-300" font-family="Ubuntu" font-size="10.00">uuid</text>
<polygon fill="#a6cee3" stroke="transparent" points="284,-295 284,-310 327,-310 327,-295 284,-295"/>
<text text-anchor="start" x="300" y="-301" font-family="Ubuntu" font-style="italic" font-size="10.00">string</text>
<text text-anchor="start" x="207" y="-285" font-family="Ubuntu" font-size="10.00">2</text>
<text text-anchor="start" x="218" y="-285" font-family="Ubuntu" font-size="10.00">footPrint</text>
<polygon fill="#fb9a99" stroke="transparent" points="284,-280 284,-295 327,-295 327,-280 284,-280"/>
<text text-anchor="start" x="286" y="-286" font-family="Ubuntu" font-weight="bold" font-size="10.00">Polygon</text>
<text text-anchor="start" x="207" y="-270" font-family="Ubuntu" font-size="10.00">3</text>
<text text-anchor="start" x="218" y="-270" font-family="Ubuntu" font-size="10.00">height</text>
<polygon fill="#a6cee3" stroke="transparent" points="284,-265 284,-280 327,-280 327,-265 284,-265"/>
<text text-anchor="start" x="295" y="-271" font-family="Ubuntu" font-style="italic" font-size="10.00">double</text>
<text text-anchor="start" x="207" y="-255" font-family="Ubuntu" font-size="10.00">4</text>
<text text-anchor="start" x="218" y="-255" font-family="Ubuntu" font-size="10.00">groundHeight</text>
<polygon fill="#a6cee3" stroke="transparent" points="284,-250 284,-265 327,-265 327,-250 284,-250"/>
<text text-anchor="start" x="295" y="-256" font-family="Ubuntu" font-style="italic" font-size="10.00">double</text>
<polygon fill="none" stroke="black" points="200,-249.5 200,-326.5 328,-326.5 328,-249.5 200,-249.5"/>
</a>
</g>
</g>
<!-- Node_Ja_106 -->
<g id="node5" class="node">
<title>Node_Ja_106</title>
<g id="a_node5"><a xlink:title="DTCC.Polygon">
<polygon fill="#fffaf0" stroke="transparent" points="402.5,-278 402.5,-310 522.5,-310 522.5,-278 402.5,-278"/>
<polygon fill="#e31a1c" stroke="transparent" points="403.5,-294 403.5,-309 521.5,-309 521.5,-294 403.5,-294"/>
<text text-anchor="start" x="480.5" y="-300" font-family="Ubuntu" font-weight="bold" font-size="10.00">Polygon</text>
<text text-anchor="start" x="405.5" y="-284" font-family="Ubuntu" font-size="10.00">[...]</text>
<text text-anchor="start" x="422.5" y="-284" font-family="Ubuntu" font-size="10.00">1</text>
<text text-anchor="start" x="433.5" y="-284" font-family="Ubuntu" font-size="10.00">vertices</text>
<polygon fill="#fb9a99" stroke="transparent" points="470.5,-279 470.5,-294 521.5,-294 521.5,-279 470.5,-279"/>
<text text-anchor="start" x="472.5" y="-285" font-family="Ubuntu" font-weight="bold" font-size="10.00">Vector2D</text>
<polygon fill="none" stroke="black" points="402.5,-278 402.5,-310 522.5,-310 522.5,-278 402.5,-278"/>
</a>
</g>
</g>
<!-- Node_Ja_112&#45;&gt;Node_Ja_106 -->
<g id="edge6" class="edge">
<title>Node_Ja_112:e&#45;&gt;Node_Ja_106:header</title>
<g id="a_edge6"><a xlink:title="Ja_112 &#45;&#45;&gt; Ja_106">
<path fill="none" stroke="#000000" d="M328,-287C358.08,-287 366.88,-298.9 392.31,-301.5"/>
<polygon fill="#000000" stroke="#000000" points="392.34,-305.01 402.5,-302 392.68,-298.01 392.34,-305.01"/>
</a>
</g>
</g>
<!-- Node_Ja_103 -->
<g id="node4" class="node">
<title>Node_Ja_103</title>
<g id="a_node4"><a xlink:title="DTCC.Simplex3D">
<polygon fill="#fffaf0" stroke="transparent" points="38,-487.5 38,-564.5 99,-564.5 99,-487.5 38,-487.5"/>
<polygon fill="#e31a1c" stroke="transparent" points="39.5,-548 39.5,-563 98.5,-563 98.5,-548 39.5,-548"/>
<text text-anchor="start" x="44.5" y="-554" font-family="Ubuntu" font-weight="bold" font-size="10.00">Simplex3D</text>
<text text-anchor="start" x="45.5" y="-538" font-family="Ubuntu" font-size="10.00">1</text>
<text text-anchor="start" x="56.5" y="-538" font-family="Ubuntu" font-size="10.00">v0</text>
<polygon fill="#a6cee3" stroke="transparent" points="70.5,-533 70.5,-548 98.5,-548 98.5,-533 70.5,-533"/>
<text text-anchor="start" x="72.5" y="-539" font-family="Ubuntu" font-style="italic" font-size="10.00">int32</text>
<text text-anchor="start" x="45.5" y="-523" font-family="Ubuntu" font-size="10.00">2</text>
<text text-anchor="start" x="56.5" y="-523" font-family="Ubuntu" font-size="10.00">v1</text>
<polygon fill="#a6cee3" stroke="transparent" points="70.5,-518 70.5,-533 98.5,-533 98.5,-518 70.5,-518"/>
<text text-anchor="start" x="72.5" y="-524" font-family="Ubuntu" font-style="italic" font-size="10.00">int32</text>
<text text-anchor="start" x="45.5" y="-508" font-family="Ubuntu" font-size="10.00">3</text>
<text text-anchor="start" x="56.5" y="-508" font-family="Ubuntu" font-size="10.00">v2</text>
<polygon fill="#a6cee3" stroke="transparent" points="70.5,-503 70.5,-518 98.5,-518 98.5,-503 70.5,-503"/>
<text text-anchor="start" x="72.5" y="-509" font-family="Ubuntu" font-style="italic" font-size="10.00">int32</text>
<text text-anchor="start" x="45.5" y="-493" font-family="Ubuntu" font-size="10.00">4</text>
<text text-anchor="start" x="56.5" y="-493" font-family="Ubuntu" font-size="10.00">v3</text>
<polygon fill="#a6cee3" stroke="transparent" points="70.5,-488 70.5,-503 98.5,-503 98.5,-488 70.5,-488"/>
<text text-anchor="start" x="72.5" y="-494" font-family="Ubuntu" font-style="italic" font-size="10.00">int32</text>
<polygon fill="none" stroke="black" points="38,-487.5 38,-564.5 99,-564.5 99,-487.5 38,-487.5"/>
</a>
</g>
</g>
<!-- Node_Ja_100 -->
<g id="node9" class="node">
<title>Node_Ja_100</title>
<g id="a_node9"><a xlink:title="DTCC.Vector2D">
<polygon fill="#fffaf0" stroke="transparent" points="582,-336.5 582,-383.5 635,-383.5 635,-336.5 582,-336.5"/>
<polygon fill="#e31a1c" stroke="transparent" points="583.5,-367 583.5,-382 634.5,-382 634.5,-367 583.5,-367"/>
<text text-anchor="start" x="585.5" y="-373" font-family="Ubuntu" font-weight="bold" font-size="10.00">Vector2D</text>
<text text-anchor="start" x="589.5" y="-357" font-family="Ubuntu" font-size="10.00">1</text>
<text text-anchor="start" x="600.5" y="-357" font-family="Ubuntu" font-size="10.00">x</text>
<polygon fill="#a6cee3" stroke="transparent" points="608.5,-352 608.5,-367 634.5,-367 634.5,-352 608.5,-352"/>
<text text-anchor="start" x="610.5" y="-358" font-family="Ubuntu" font-style="italic" font-size="10.00">float</text>
<text text-anchor="start" x="589.5" y="-342" font-family="Ubuntu" font-size="10.00">2</text>
<text text-anchor="start" x="600.5" y="-342" font-family="Ubuntu" font-size="10.00">y</text>
<polygon fill="#a6cee3" stroke="transparent" points="608.5,-337 608.5,-352 634.5,-352 634.5,-337 608.5,-337"/>
<text text-anchor="start" x="610.5" y="-343" font-family="Ubuntu" font-style="italic" font-size="10.00">float</text>
<polygon fill="none" stroke="black" points="582,-336.5 582,-383.5 635,-383.5 635,-336.5 582,-336.5"/>
</a>
</g>
</g>
<!-- Node_Ja_106&#45;&gt;Node_Ja_100 -->
<g id="edge12" class="edge">
<title>Node_Ja_106:e&#45;&gt;Node_Ja_100:header</title>
<g id="a_edge12"><a xlink:title="Ja_106 &#45;&#45;&gt; Ja_100">
<path fill="none" stroke="#000000" d="M522.5,-286C566.29,-286 540.05,-361 572.35,-373.3"/>
<polygon fill="#000000" stroke="#000000" points="572.06,-376.8 582.5,-375 573.21,-369.9 572.06,-376.8"/>
</a>
</g>
</g>
<!-- Node_Ja_104 -->
<g id="node6" class="node">
<title>Node_Ja_104</title>
<g id="a_node6"><a xlink:title="DTCC.BoundingBox2D">
<polygon fill="#fffaf0" stroke="transparent" points="420.5,-367.5 420.5,-414.5 504.5,-414.5 504.5,-367.5 420.5,-367.5"/>
<polygon fill="#e31a1c" stroke="transparent" points="421.5,-398 421.5,-413 503.5,-413 503.5,-398 421.5,-398"/>
<text text-anchor="start" x="423.5" y="-404" font-family="Ubuntu" font-weight="bold" font-size="10.00">BoundingBox2D</text>
<text text-anchor="start" x="430.5" y="-388" font-family="Ubuntu" font-size="10.00">1</text>
<text text-anchor="start" x="441.5" y="-388" font-family="Ubuntu" font-size="10.00">p</text>
<polygon fill="#fb9a99" stroke="transparent" points="451.5,-383 451.5,-398 503.5,-398 503.5,-383 451.5,-383"/>
<text text-anchor="start" x="454.5" y="-389" font-family="Ubuntu" font-weight="bold" font-size="10.00">Vector2D</text>
<text text-anchor="start" x="430.5" y="-373" font-family="Ubuntu" font-size="10.00">2</text>
<text text-anchor="start" x="441.5" y="-373" font-family="Ubuntu" font-size="10.00">q</text>
<polygon fill="#fb9a99" stroke="transparent" points="451.5,-368 451.5,-383 503.5,-383 503.5,-368 451.5,-368"/>
<text text-anchor="start" x="454.5" y="-374" font-family="Ubuntu" font-weight="bold" font-size="10.00">Vector2D</text>
<polygon fill="none" stroke="black" points="420.5,-367.5 420.5,-414.5 504.5,-414.5 504.5,-367.5 420.5,-367.5"/>
</a>
</g>
</g>
<!-- Node_Ja_104&#45;&gt;Node_Ja_100 -->
<g id="edge3" class="edge">
<title>Node_Ja_104:e&#45;&gt;Node_Ja_100:header</title>
<g id="a_edge3"><a xlink:title="Ja_104 &#45;&#45;&gt; Ja_100">
<path fill="none" stroke="#000000" d="M504.5,-375C535.51,-375 545.72,-375 572.34,-375"/>
<polygon fill="#000000" stroke="#000000" points="572.5,-378.5 582.5,-375 572.5,-371.5 572.5,-378.5"/>
</a>
</g>
</g>
<!-- Node_Ja_104&#45;&gt;Node_Ja_100 -->
<g id="edge10" class="edge">
<title>Node_Ja_104:e&#45;&gt;Node_Ja_100:header</title>
<g id="a_edge10"><a xlink:title="Ja_104 &#45;&#45;&gt; Ja_100">
<path fill="none" stroke="#000000" d="M504.5,-390C536.08,-390 545.33,-378 572.2,-375.47"/>
<polygon fill="#000000" stroke="#000000" points="572.67,-378.95 582.5,-375 572.35,-371.95 572.67,-378.95"/>
</a>
</g>
</g>
<!-- Node_Ja_107 -->
<g id="node7" class="node">
<title>Node_Ja_107</title>
<g id="a_node7"><a xlink:title="DTCC.Grid2D">
<polygon fill="#fffaf0" stroke="transparent" points="181,-353 181,-445 347,-445 347,-353 181,-353"/>
<polygon fill="#e31a1c" stroke="transparent" points="182,-429 182,-444 346,-444 346,-429 182,-429"/>
<text text-anchor="start" x="310" y="-435" font-family="Ubuntu" font-weight="bold" font-size="10.00">Grid2D</text>
<text text-anchor="start" x="188" y="-419" font-family="Ubuntu" font-size="10.00">1</text>
<text text-anchor="start" x="199" y="-419" font-family="Ubuntu" font-size="10.00">boundingBox</text>
<polygon fill="#fb9a99" stroke="transparent" points="264,-414 264,-429 346,-429 346,-414 264,-414"/>
<text text-anchor="start" x="266" y="-420" font-family="Ubuntu" font-weight="bold" font-size="10.00">BoundingBox2D</text>
<text text-anchor="start" x="188" y="-404" font-family="Ubuntu" font-size="10.00">2</text>
<text text-anchor="start" x="199" y="-404" font-family="Ubuntu" font-size="10.00">xSize</text>
<polygon fill="#a6cee3" stroke="transparent" points="264,-399 264,-414 346,-414 346,-399 264,-399"/>
<text text-anchor="start" x="320" y="-405" font-family="Ubuntu" font-style="italic" font-size="10.00">int32</text>
<text text-anchor="start" x="188" y="-389" font-family="Ubuntu" font-size="10.00">3</text>
<text text-anchor="start" x="199" y="-389" font-family="Ubuntu" font-size="10.00">ySize</text>
<polygon fill="#a6cee3" stroke="transparent" points="264,-384 264,-399 346,-399 346,-384 264,-384"/>
<text text-anchor="start" x="320" y="-390" font-family="Ubuntu" font-style="italic" font-size="10.00">int32</text>
<text text-anchor="start" x="188" y="-374" font-family="Ubuntu" font-size="10.00">4</text>
<text text-anchor="start" x="199" y="-374" font-family="Ubuntu" font-size="10.00">xStep</text>
<polygon fill="#a6cee3" stroke="transparent" points="264,-369 264,-384 346,-384 346,-369 264,-369"/>
<text text-anchor="start" x="322" y="-375" font-family="Ubuntu" font-style="italic" font-size="10.00">float</text>
<text text-anchor="start" x="188" y="-359" font-family="Ubuntu" font-size="10.00">5</text>
<text text-anchor="start" x="199" y="-359" font-family="Ubuntu" font-size="10.00">yStep</text>
<polygon fill="#a6cee3" stroke="transparent" points="264,-354 264,-369 346,-369 346,-354 264,-354"/>
<text text-anchor="start" x="322" y="-360" font-family="Ubuntu" font-style="italic" font-size="10.00">float</text>
<polygon fill="none" stroke="black" points="181,-353 181,-445 347,-445 347,-353 181,-353"/>
</a>
</g>
</g>
<!-- Node_Ja_107&#45;&gt;Node_Ja_104 -->
<g id="edge13" class="edge">
<title>Node_Ja_107:e&#45;&gt;Node_Ja_104:header</title>
<g id="a_edge13"><a xlink:title="Ja_107 &#45;&#45;&gt; Ja_104">
<path fill="none" stroke="#000000" d="M347,-422C376.78,-422 385.3,-409.31 410.42,-406.53"/>
<polygon fill="#000000" stroke="#000000" points="410.7,-410.02 420.5,-406 410.33,-403.03 410.7,-410.02"/>
</a>
</g>
</g>
<!-- Node_Ja_110 -->
<g id="node8" class="node">
<title>Node_Ja_110</title>
<g id="a_node8"><a xlink:title="DTCC.GridField2D">
<polygon fill="#fffaf0" stroke="transparent" points="17.5,-414.5 17.5,-461.5 119.5,-461.5 119.5,-414.5 17.5,-414.5"/>
<polygon fill="#e31a1c" stroke="transparent" points="18.5,-445 18.5,-460 118.5,-460 118.5,-445 18.5,-445"/>
<text text-anchor="start" x="58.5" y="-451" font-family="Ubuntu" font-weight="bold" font-size="10.00">GridField2D</text>
<text text-anchor="start" x="37.5" y="-435" font-family="Ubuntu" font-size="10.00">1</text>
<text text-anchor="start" x="48.5" y="-435" font-family="Ubuntu" font-size="10.00">grid</text>
<polygon fill="#fb9a99" stroke="transparent" points="80.5,-430 80.5,-445 118.5,-445 118.5,-430 80.5,-430"/>
<text text-anchor="start" x="82.5" y="-436" font-family="Ubuntu" font-weight="bold" font-size="10.00">Grid2D</text>
<text text-anchor="start" x="20.5" y="-420" font-family="Ubuntu" font-size="10.00">[...]</text>
<text text-anchor="start" x="37.5" y="-420" font-family="Ubuntu" font-size="10.00">2</text>
<text text-anchor="start" x="48.5" y="-420" font-family="Ubuntu" font-size="10.00">values</text>
<polygon fill="#a6cee3" stroke="transparent" points="80.5,-415 80.5,-430 118.5,-430 118.5,-415 80.5,-415"/>
<text text-anchor="start" x="94.5" y="-421" font-family="Ubuntu" font-style="italic" font-size="10.00">float</text>
<polygon fill="none" stroke="black" points="17.5,-414.5 17.5,-461.5 119.5,-461.5 119.5,-414.5 17.5,-414.5"/>
</a>
</g>
</g>
<!-- Node_Ja_110&#45;&gt;Node_Ja_107 -->
<g id="edge1" class="edge">
<title>Node_Ja_110:e&#45;&gt;Node_Ja_107:header</title>
<g id="a_edge1"><a xlink:title="Ja_110 &#45;&#45;&gt; Ja_107">
<path fill="none" stroke="#000000" d="M119.5,-437C143.1,-437 151.41,-437 170.83,-437"/>
<polygon fill="#000000" stroke="#000000" points="171,-440.5 181,-437 171,-433.5 171,-440.5"/>
</a>
</g>
</g>
<!-- Node_Ja_113 -->
<g id="node11" class="node">
<title>Node_Ja_113</title>
<g id="a_node11"><a xlink:title="DTCC.CityModel">
<polygon fill="#fffaf0" stroke="transparent" points="8,-310 8,-342 129,-342 129,-310 8,-310"/>
<polygon fill="#e31a1c" stroke="transparent" points="9.5,-326 9.5,-341 128.5,-341 128.5,-326 9.5,-326"/>
<text text-anchor="start" x="76.5" y="-332" font-family="Ubuntu" font-weight="bold" font-size="10.00">CityModel</text>
<text text-anchor="start" x="11.5" y="-316" font-family="Ubuntu" font-size="10.00">[...]</text>
<text text-anchor="start" x="28.5" y="-316" font-family="Ubuntu" font-size="10.00">4</text>
<text text-anchor="start" x="39.5" y="-316" font-family="Ubuntu" font-size="10.00">buildings</text>
<polygon fill="#fb9a99" stroke="transparent" points="84.5,-311 84.5,-326 128.5,-326 128.5,-311 84.5,-311"/>
<text text-anchor="start" x="86.5" y="-317" font-family="Ubuntu" font-weight="bold" font-size="10.00">Building</text>
<polygon fill="none" stroke="black" points="8,-310 8,-342 129,-342 129,-310 8,-310"/>
</a>
</g>
</g>
<!-- Node_Ja_113&#45;&gt;Node_Ja_112 -->
<g id="edge9" class="edge">
<title>Node_Ja_113:e&#45;&gt;Node_Ja_112:header</title>
<g id="a_edge9"><a xlink:title="Ja_113 &#45;&#45;&gt; Ja_112">
<path fill="none" stroke="#000000" d="M129.5,-318C157.16,-318 166.51,-318 189.88,-318"/>
<polygon fill="#000000" stroke="#000000" points="190,-321.5 200,-318 190,-314.5 190,-321.5"/>
</a>
</g>
</g>
<!-- Node_Ja_111 -->
<g id="node13" class="node">
<title>Node_Ja_111</title>
<g id="a_node13"><a xlink:title="DTCC.GridField3D">
<polygon fill="#fffaf0" stroke="transparent" points="17.5,-192.5 17.5,-239.5 119.5,-239.5 119.5,-192.5 17.5,-192.5"/>
<polygon fill="#e31a1c" stroke="transparent" points="18.5,-223 18.5,-238 118.5,-238 118.5,-223 18.5,-223"/>
<text text-anchor="start" x="58.5" y="-229" font-family="Ubuntu" font-weight="bold" font-size="10.00">GridField3D</text>
<text text-anchor="start" x="37.5" y="-213" font-family="Ubuntu" font-size="10.00">1</text>
<text text-anchor="start" x="48.5" y="-213" font-family="Ubuntu" font-size="10.00">grid</text>
<polygon fill="#fb9a99" stroke="transparent" points="80.5,-208 80.5,-223 118.5,-223 118.5,-208 80.5,-208"/>
<text text-anchor="start" x="82.5" y="-214" font-family="Ubuntu" font-weight="bold" font-size="10.00">Grid3D</text>
<text text-anchor="start" x="20.5" y="-198" font-family="Ubuntu" font-size="10.00">[...]</text>
<text text-anchor="start" x="37.5" y="-198" font-family="Ubuntu" font-size="10.00">2</text>
<text text-anchor="start" x="48.5" y="-198" font-family="Ubuntu" font-size="10.00">values</text>
<polygon fill="#a6cee3" stroke="transparent" points="80.5,-193 80.5,-208 118.5,-208 118.5,-193 80.5,-193"/>
<text text-anchor="start" x="94.5" y="-199" font-family="Ubuntu" font-style="italic" font-size="10.00">float</text>
<polygon fill="none" stroke="black" points="17.5,-192.5 17.5,-239.5 119.5,-239.5 119.5,-192.5 17.5,-192.5"/>
</a>
</g>
</g>
<!-- Node_Ja_111&#45;&gt;Node_Ja_108 -->
<g id="edge2" class="edge">
<title>Node_Ja_111:e&#45;&gt;Node_Ja_108:header</title>
<g id="a_edge2"><a xlink:title="Ja_111 &#45;&#45;&gt; Ja_108">
<path fill="none" stroke="#000000" d="M119.5,-215C143.1,-215 151.41,-215 170.83,-215"/>
<polygon fill="#000000" stroke="#000000" points="171,-218.5 181,-215 171,-211.5 171,-218.5"/>
</a>
</g>
</g>
<!-- Node_Ja_105&#45;&gt;Node_Ja_101 -->
<g id="edge4" class="edge">
<title>Node_Ja_105:e&#45;&gt;Node_Ja_101:header</title>
<g id="a_edge4"><a xlink:title="Ja_105 &#45;&#45;&gt; Ja_101">
<path fill="none" stroke="#000000" d="M504.5,-184C536.08,-184 545.33,-172 572.2,-169.47"/>
<polygon fill="#000000" stroke="#000000" points="572.67,-172.95 582.5,-169 572.35,-165.95 572.67,-172.95"/>
</a>
</g>
</g>
<!-- Node_Ja_105&#45;&gt;Node_Ja_101 -->
<g id="edge11" class="edge">
<title>Node_Ja_105:e&#45;&gt;Node_Ja_101:header</title>
<g id="a_edge11"><a xlink:title="Ja_105 &#45;&#45;&gt; Ja_101">
<path fill="none" stroke="#000000" d="M504.5,-169C535.51,-169 545.72,-169 572.34,-169"/>
<polygon fill="#000000" stroke="#000000" points="572.5,-172.5 582.5,-169 572.5,-165.5 572.5,-172.5"/>
</a>
</g>
</g>
</g>
</svg>
